<?xml version="1.0" encoding="utf-8"?>
<!-- Generator: Adobe Illustrator 21.0.0, SVG Export Plug-In . SVG Version: 6.00 Build 0)  -->
<svg version="1.1" id="Layer_1" xmlns="http://www.w3.org/2000/svg" xmlns:xlink="http://www.w3.org/1999/xlink" x="0px" y="0px"
	 viewBox="0 0 700 700" style="enable-background:new 0 0 700 700;" xml:space="preserve">
<style type="text/css">
	.st0{fill:#FFFFFF;}
	.st1{clip-path:url(#SVGID_2_);fill:#FFFFFF;}
</style>
<g>
	<g>
		<path class="st0" d="M375.8,391.5c42.4,0,76.9-34.5,76.9-76.9s-34.5-76.9-76.9-76.9s-76.9,34.5-76.9,76.9S333.4,391.5,375.8,391.5
			z"/>
		<g>
			<path class="st0" d="M310.5,406.8c-29.6,0-53.6,24-53.6,53.6v59.9c0,5.7,4.6,10.3,10.3,10.3h217.4c5.7,0,10.3-4.6,10.3-10.3
				v-58.4c0.9-1.6,1.7-3.3,2.4-5l42.1-111.4c1.4-3.7,2.1-7.7,2.1-11.7v-125c0-18.2-14.8-33-33-33c-18.2,0-33,14.8-33,33v119
				l-29.8,79H310.5z"/>
			<path class="st0" d="M180.4,227.8h24.3c5.1,0,9.4-3.7,10.2-8.7c1.4-9.2,4.2-15.9,8.5-20c3.9-3.8,9.3-5.7,16.6-5.7
				c7.5,0,13.2,2.1,17.6,6.4s6.4,9.4,6.4,16.3c0,3.2-0.7,6.2-2.3,9.1c-0.8,1.4-3.8,5.9-15.5,15.8c-10.8,9.2-18.1,17.8-22.4,26.3
				c-4.3,8.7-6.4,21.4-6.4,38.6l0,0c0,5.7,4.6,10.3,10.3,10.3h22c5.7,0,10.3-4.6,10.3-10.3l0,0c0-13.3,1.6-18.8,2.6-20.8
				c0.7-1.7,3.8-6.5,16.1-16.7c11.4-9.4,19.1-18.1,23.4-26.3c4.5-8.5,6.8-17.7,6.8-27.6c0-17.5-6.6-32.2-19.8-43.6
				c-12.7-11-29.3-16.5-49.3-16.5c-19.1,0-35.2,5.7-47.9,16.9c-12.8,11.3-20.1,26.6-21.7,45.5l0,0
				C169.6,222.6,174.3,227.8,180.4,227.8z"/>
			<path class="st0" d="M249.6,374.5c5.7,0,10.3-4.6,10.3-10.3v-21.9c0-5.7-4.6-10.3-10.3-10.3h-21.9c-5.7,0-10.3,4.6-10.3,10.3
				v21.9c0,5.7,4.6,10.3,10.3,10.3H249.6z"/>
		</g>
	</g>
</g>
<g>
	<defs>
		<path id="SVGID_1_" d="M360.4,21.3c-181.6,0-328.7,147.3-328.7,329c0,91.7,37.4,174.5,97.8,234.3c31.2,30.8,68.3,55.3,109.8,71.7
			c37.4,14.8,78.3,23,121.1,23s83.6-8.2,121.1-23c49.3-19.6,92.8-50.7,127-90.1c50.2-57.7,80.6-133.2,80.6-215.8
			C689.2,168.6,542,21.3,360.4,21.3 M599,532.6c-55,71-141,116.6-237.7,116.6c-90.9,0-172.4-40.3-227.5-104.1
			c-45.8-52.7-73.4-121.5-73.4-196.8C60.5,182,195.1,47.2,361.3,47.2S662.1,182,662.1,348.3C662,417.7,638.5,481.8,599,532.6"/>
	</defs>
	<clipPath id="SVGID_2_">
		<use xlink:href="#SVGID_1_"  style="overflow:visible;"/>
	</clipPath>
	<rect x="21.1" y="10.7" class="st1" width="678.6" height="679.1"/>
</g>
</svg>
