<?xml version="1.0" encoding="utf-8"?>
<!-- Generator: Adobe Illustrator 21.0.0, SVG Export Plug-In . SVG Version: 6.00 Build 0)  -->
<svg version="1.1" id="Capa_1" xmlns="http://www.w3.org/2000/svg" xmlns:xlink="http://www.w3.org/1999/xlink" x="0px" y="0px"
	 viewBox="0 0 512 402" style="enable-background:new 0 0 512 402;" xml:space="preserve">
<style type="text/css">
	.st0{fill:#FFFFFF;}
</style>
<g>
	<path class="st0" d="M255,243.2l-152.7-47v46.2v32.3c0,36.3,68.4,65.7,152.8,65.7s152.8-29.4,152.8-65.7c0-0.3-0.1-0.6-0.1-0.9
		v-77.7L255,243.2z"/>
	<path class="st0" d="M-1,142.1l54.6,19.5l4.6-10l20-1.7l2.9,3L63.9,157l-2.5,7.4c0,0-38.9,81.2-33.1,121c0,0,24.2,14.5,48.5,0
		l6.4-108.6v-9l36.1-8.1l-2.5,6.3l-26.9,8.7l12.4,4.4L255,226l152.7-47L511,142.1L255,43.6L-1,142.1z"/>
</g>
</svg>
