<?xml version="1.0" encoding="utf-8"?>
<!-- Generator: Adobe Illustrator 21.0.0, SVG Export Plug-In . SVG Version: 6.00 Build 0)  -->
<svg version="1.1" id="Capa_1" xmlns="http://www.w3.org/2000/svg" xmlns:xlink="http://www.w3.org/1999/xlink" x="0px" y="0px"
	 viewBox="0 0 512 512" style="enable-background:new 0 0 512 512;" xml:space="preserve">
<style type="text/css">
	.st0{fill:#FFFFFF;}
</style>
<g>
	<path id="PayPal" class="st0" d="M330.3,0H106.1L6.8,455.9h131.5l32.2-151.1h94c89.9,0,165.1-55.4,185.2-149.7
		C472.5,48.5,396,0,330.3,0z M232.2,217.6h-42.9l28.2-124.7h64.4c22.1,0,38.8,13.2,44.3,32.5c-2.8-0.5-5.4-1.3-8.5-1.3h-64.4
		L232.2,217.6z M326.2,155.2c-7.8,33.8-40,60.9-72.8,62.1l15.4-68.4h58.4C327,151,326.8,153,326.2,155.2z M485.6,186.3
		c7.5-35.3,4-64.1-6.2-87.1c21.3,25.4,32.4,62.3,21.8,112c-20.2,94.2-95.4,149.7-185.2,149.7h-94L189.7,512H58.2l5.5-24.9h110.5
		L206.4,336h94C390.2,336,465.4,280.6,485.6,186.3z"/>
</g>
</svg>
